<svg width="24" height="24" viewBox="0 0 24 24" fill="none" xmlns="http://www.w3.org/2000/svg">
<g clip-path="url(#clip0_1578_1662)">
<path d="M23.0566 7.32937C22.4523 5.90043 21.5874 4.61724 20.4851 3.51494C19.3835 2.41334 18.0996 1.54838 16.6714 0.943389C15.1919 0.317916 13.6201 0 12 0C10.3802 0 8.80851 0.317869 7.329 0.943389C5.90006 1.54838 4.61649 2.41334 3.51452 3.51494C2.41297 4.61724 1.54763 5.90043 0.943342 7.32937C0.317541 8.80884 0 10.3807 0 12C0 13.6201 0.317494 15.1919 0.943389 16.6713C1.54763 18.1003 2.41301 19.3835 3.51456 20.4858C4.61649 21.5874 5.90006 22.4531 7.32904 23.0573C8.80856 23.6828 10.3803 24 12 24C13.6201 24 15.192 23.6828 16.6714 23.0573C18.0997 22.453 19.3835 21.5874 20.4851 20.4858C21.5875 19.3835 22.4524 18.1003 23.0566 16.6713C23.6821 15.1919 24 13.6201 24 12C24 10.3807 23.6821 8.80884 23.0566 7.32937Z" fill="#FFCE54"/>
<path d="M19.0709 4.92898C17.1827 3.04005 14.6712 2 12.0001 2C9.329 2 6.81787 3.04005 4.92894 4.92894C3.04042 6.81787 2 9.32932 2 11.9997C2 14.6708 3.04042 17.1823 4.92894 19.0712C6.81782 20.9602 9.32895 22.0001 12.0001 22.0001C14.6713 22.0001 17.1827 20.9601 19.0709 19.0712C20.9598 17.1823 22.0005 14.6708 22.0005 11.9997C22.0005 9.32932 20.9598 6.81787 19.0709 4.92898Z" fill="#ED5564"/>
<path d="M8.17188 21.2431C9.36938 21.7398 10.665 21.9997 12.0006 21.9997V12L8.17188 21.2431Z" fill="#434A54"/>
<path d="M15.8292 2.75659C14.6309 2.26002 13.3359 2 12 2V12.0005L15.8292 2.75659Z" fill="#434A54"/>
<path d="M15.8292 21.2431C17.0266 20.7473 18.1268 20.0148 19.0708 19.0707L12 12L15.8292 21.2431Z" fill="#434A54"/>
<path d="M8.17213 2.75586C6.97425 3.25172 5.87415 3.98412 4.92969 4.92826L12.0009 11.9998L8.17213 2.75586Z" fill="#434A54"/>
<path d="M21.2439 15.8291C21.7397 14.6316 22.0004 13.3359 22.0004 12H12L21.2439 15.8291Z" fill="#A0D468"/>
<path d="M2.75621 8.17188C2.26002 9.36938 2 10.665 2 12.0002H12.0001L2.75621 8.17188Z" fill="#434A54"/>
<path d="M21.2439 8.17209C20.748 6.97383 20.0156 5.87448 19.0708 4.92969L12 12.0004L21.2439 8.17209Z" fill="#434A54"/>
<path d="M2.75781 15.8292C3.254 17.0274 3.98644 18.1275 4.93054 19.0715L12.0017 12L2.75781 15.8292Z" fill="#434A54"/>
<path d="M16.4515 12.0017C16.4515 14.4589 14.4593 16.4518 12.0013 16.4518C9.54331 16.4518 7.55078 14.4589 7.55078 12.0017C7.55078 9.54369 9.54336 7.55078 12.0013 7.55078C14.4593 7.55078 16.4515 9.54369 16.4515 12.0017Z" fill="#FFCE54"/>
<path d="M16.3536 6.35348C16.1588 6.549 15.8417 6.549 15.6461 6.35348C15.4513 6.15866 15.4513 5.8415 15.6461 5.64668C15.8417 5.45111 16.1588 5.45111 16.3536 5.64668C16.5484 5.8415 16.5484 6.15866 16.3536 6.35348Z" fill="#E6E9ED"/>
<path d="M11.9999 15C11.7238 15 11.5 14.7765 11.5 14.5004V9.50022C11.5 9.22407 11.7237 9 11.9999 9C12.276 9 12.4998 9.22412 12.4998 9.50022V14.5004C12.4998 14.7765 12.276 15 11.9999 15Z" fill="#434A54"/>
<path d="M14.5005 12.4997H9.49989C9.22374 12.4997 9 12.2763 9 11.9995C9 11.7241 9.22374 11.5 9.49989 11.5H14.5005C14.7759 11.5 15 11.7241 15 11.9995C15 12.2763 14.7759 12.4997 14.5005 12.4997Z" fill="#434A54"/>
<path d="M12 10.5C11.1727 10.5 10.5 11.1731 10.5 12C10.5 12.8277 11.1727 13.5 12 13.5C12.8277 13.5 13.5 12.8277 13.5 12C13.5 11.1731 12.8277 10.5 12 10.5Z" fill="#656D78"/>
</g>
<defs>
<clipPath id="clip0_1578_1662">
<rect width="24" height="24" fill="white"/>
</clipPath>
</defs>
</svg>
